<?xml version="1.0" encoding="UTF-8" standalone="no"?>
<!DOCTYPE svg PUBLIC "-//W3C//DTD SVG 1.1//EN" "http://www.w3.org/Graphics/SVG/1.1/DTD/svg11.dtd">
<svg version="1.1" xmlns="http://www.w3.org/2000/svg" xmlns:xlink="http://www.w3.org/1999/xlink" preserveAspectRatio="xMidYMid meet" viewBox="0 0 26 32" width="26" height="32"><defs><path d="M13 2C18.52 2 23 6.47 23 12C23 16.03 21.59 17.16 14.02 28.12C13.53 28.85 12.47 28.85 11.98 28.12C4.41 17.16 3 16.03 3 12C3 6.47 7.48 2 13 2Z" id="d3MDsM24t7"></path><mask id="maskm486u0Raa" x="-1" y="-2" width="28" height="34.67" maskUnits="userSpaceOnUse"><rect x="-1" y="-2" width="28" height="34.67" fill="white"></rect><use xlink:href="#d3MDsM24t7" opacity="1" fill="black"></use></mask></defs><g><g><g><g><filter id="shadow1720387" x="-6" y="-7" width="38" height="45.67" filterUnits="userSpaceOnUse" primitiveUnits="userSpaceOnUse"><feFlood></feFlood><feComposite in2="SourceAlpha" operator="in"></feComposite><feGaussianBlur stdDeviation="1"></feGaussianBlur><feOffset dx="0" dy="1" result="afterOffset"></feOffset><feFlood flood-color="#000000" flood-opacity="0.5"></feFlood><feComposite in2="afterOffset" operator="in"></feComposite><feMorphology operator="dilate" radius="1"></feMorphology><feComposite in2="SourceAlpha" operator="out"></feComposite></filter><path d="M13 2C18.52 2 23 6.47 23 12C23 16.03 21.59 17.16 14.02 28.12C13.53 28.85 12.47 28.85 11.98 28.12C4.41 17.16 3 16.03 3 12C3 6.47 7.48 2 13 2Z" id="b6aiBLosFI" fill="white" fill-opacity="1" filter="url(#shadow1720387)"></path></g><use xlink:href="#d3MDsM24t7" opacity="1" fill="#ffe14b" fill-opacity="1"></use><g mask="url(#maskm486u0Raa)"><use xlink:href="#d3MDsM24t7" opacity="1" fill-opacity="0" stroke="#ffffff" stroke-width="4" stroke-opacity="1"></use></g></g></g></g></svg>