<?xml version="1.0" encoding="UTF-8" standalone="no"?>
<!DOCTYPE svg PUBLIC "-//W3C//DTD SVG 1.1//EN" "http://www.w3.org/Graphics/SVG/1.1/DTD/svg11.dtd">
<svg version="1.1" xmlns="http://www.w3.org/2000/svg" xmlns:xlink="http://www.w3.org/1999/xlink" preserveAspectRatio="xMidYMid meet" viewBox="0 0 42 54" width="42" height="54"><defs><path d="M23.21 4.16L24.28 4.36L25.33 4.64L26.34 4.98L27.32 5.4L28.26 5.88L29.16 6.42L30.02 7.02L30.84 7.69L31.6 8.4L32.32 9.17L32.98 9.98L33.58 10.84L34.12 11.74L34.6 12.69L35.02 13.67L35.36 14.68L35.64 15.72L35.84 16.79L35.96 17.89L36 19.01L35.91 20.57L35.65 22.19L35.24 23.86L34.69 25.55L34.03 27.26L33.26 28.97L32.41 30.67L31.49 32.36L30.52 34.01L29.52 35.62L28.5 37.17L27.48 38.64L26.48 40.04L25.51 41.35L24.59 42.54L23.74 43.62L22.97 44.56L22.31 45.36L21.76 46.01L21.35 46.48L21.09 46.78L21 46.88L20.91 46.78L20.65 46.48L20.24 46.01L19.69 45.36L19.03 44.56L18.26 43.62L17.41 42.54L16.49 41.35L15.52 40.04L14.52 38.64L13.5 37.17L12.48 35.62L11.48 34.01L10.51 32.36L9.59 30.67L8.74 28.97L7.97 27.26L7.31 25.55L6.76 23.86L6.35 22.19L6.09 20.57L6 19.01L6.04 17.89L6.16 16.79L6.36 15.72L6.64 14.68L6.98 13.67L7.4 12.69L7.88 11.74L8.42 10.84L9.02 9.98L9.68 9.17L10.4 8.4L11.16 7.69L11.98 7.02L12.84 6.42L13.74 5.88L14.68 5.4L15.66 4.98L16.67 4.64L17.72 4.36L18.79 4.16L19.88 4.04L21 4L22.12 4.04L23.21 4.16ZM14.57 25.44L17.66 25.44L24.81 18.26L21.75 15.19L14.57 22.35L14.57 25.44ZM24.11 12.81L23.96 12.96L23.66 13.26L22.61 14.31L25.69 17.4L26.67 16.42L27.19 15.9L27.37 15.63L27.43 15.32L27.37 15.01L27.19 14.74L25.26 12.81L24.99 12.63L24.69 12.57L24.38 12.63L24.11 12.81Z" id="bbo0a19Yd"></path><mask id="maski89XxUOBJ0" x="0" y="-2" width="42" height="54.88" maskUnits="userSpaceOnUse"><rect x="0" y="-2" width="42" height="54.88" fill="white"></rect><use xlink:href="#bbo0a19Yd" opacity="1" fill="black"></use></mask></defs><g><g><g><g><filter id="shadow8108301" x="-6" y="-8" width="54" height="68.88" filterUnits="userSpaceOnUse" primitiveUnits="userSpaceOnUse"><feFlood></feFlood><feComposite in2="SourceAlpha" operator="in"></feComposite><feGaussianBlur stdDeviation="1.41"></feGaussianBlur><feOffset dx="0" dy="2" result="afterOffset"></feOffset><feFlood flood-color="#000000" flood-opacity="0.5"></feFlood><feComposite in2="afterOffset" operator="in"></feComposite><feMorphology operator="dilate" radius="1"></feMorphology><feComposite in2="SourceAlpha" operator="out"></feComposite></filter><path d="M23.21 4.16L24.28 4.36L25.33 4.64L26.34 4.98L27.32 5.4L28.26 5.88L29.16 6.42L30.02 7.02L30.84 7.69L31.6 8.4L32.32 9.17L32.98 9.98L33.58 10.84L34.12 11.74L34.6 12.69L35.02 13.67L35.36 14.68L35.64 15.72L35.84 16.79L35.96 17.89L36 19.01L35.91 20.57L35.65 22.19L35.24 23.86L34.69 25.55L34.03 27.26L33.26 28.97L32.41 30.67L31.49 32.36L30.52 34.01L29.52 35.62L28.5 37.17L27.48 38.64L26.48 40.04L25.51 41.35L24.59 42.54L23.74 43.62L22.97 44.56L22.31 45.36L21.76 46.01L21.35 46.48L21.09 46.78L21 46.88L20.91 46.78L20.65 46.48L20.24 46.01L19.69 45.36L19.03 44.56L18.26 43.62L17.41 42.54L16.49 41.35L15.52 40.04L14.52 38.64L13.5 37.17L12.48 35.62L11.48 34.01L10.51 32.36L9.59 30.67L8.74 28.97L7.97 27.26L7.31 25.55L6.76 23.86L6.35 22.19L6.09 20.57L6 19.01L6.04 17.89L6.16 16.79L6.36 15.72L6.64 14.68L6.98 13.67L7.4 12.69L7.88 11.74L8.42 10.84L9.02 9.98L9.68 9.17L10.4 8.4L11.16 7.69L11.98 7.02L12.84 6.42L13.74 5.88L14.68 5.4L15.66 4.98L16.67 4.64L17.72 4.36L18.79 4.16L19.88 4.04L21 4L22.12 4.04L23.21 4.16ZM14.57 25.44L17.66 25.44L24.81 18.26L21.75 15.19L14.57 22.35L14.57 25.44ZM24.11 12.81L23.96 12.96L23.66 13.26L22.61 14.31L25.69 17.4L26.67 16.42L27.19 15.9L27.37 15.63L27.43 15.32L27.37 15.01L27.19 14.74L25.26 12.81L24.99 12.63L24.69 12.57L24.38 12.63L24.11 12.81Z" id="a19zyLtUHz" fill="white" fill-opacity="1" filter="url(#shadow8108301)"></path></g><use xlink:href="#bbo0a19Yd" opacity="1" fill="#38ccf9" fill-opacity="1"></use><g mask="url(#maski89XxUOBJ0)"><use xlink:href="#bbo0a19Yd" opacity="1" fill-opacity="0" stroke="#ffffff" stroke-width="6" stroke-opacity="1"></use></g></g></g></g></svg>