<?xml version="1.0" encoding="UTF-8" standalone="no"?>
<!DOCTYPE svg PUBLIC "-//W3C//DTD SVG 1.1//EN" "http://www.w3.org/Graphics/SVG/1.1/DTD/svg11.dtd">
<svg version="1.1" xmlns="http://www.w3.org/2000/svg" xmlns:xlink="http://www.w3.org/1999/xlink" preserveAspectRatio="xMidYMid meet" viewBox="0 0 26 34" width="26" height="34"><defs><path d="" id="a6V7Vvofu"></path><path d="M13.74 3.03L14.11 3.07L14.46 3.12L14.82 3.19L15.17 3.27L15.51 3.36L15.85 3.47L16.18 3.59L16.51 3.72L16.83 3.87L17.14 4.02L17.45 4.19L17.75 4.37L18.04 4.56L18.32 4.77L18.6 4.98L18.86 5.2L19.12 5.44L19.37 5.68L19.61 5.93L19.84 6.2L20.06 6.47L20.27 6.75L20.47 7.04L20.66 7.33L20.83 7.64L21 7.95L21.15 8.26L21.3 8.59L21.43 8.92L21.55 9.26L21.65 9.6L21.74 9.95L21.82 10.31L21.89 10.67L21.94 11.03L21.98 11.4L22 11.77L22 12.15L22 12.53L21.98 12.9L21.94 13.27L21.89 13.64L21.82 14.01L21.74 14.37L21.65 14.74L21.55 15.1L21.43 15.47L21.3 15.83L21.15 16.2L21 16.56L20.83 16.93L20.66 17.3L20.47 17.67L20.27 18.05L20.06 18.42L19.84 18.81L19.61 19.19L19.37 19.58L19.12 19.98L18.86 20.38L18.6 20.78L18.32 21.2L18.04 21.62L17.75 22.04L17.45 22.48L17.14 22.92L16.83 23.37L16.51 23.83L16.18 24.3L15.85 24.78L15.51 25.26L15.17 25.76L14.82 26.27L14.46 26.79L14.11 27.33L13.74 27.87L13.38 28.43L13 29L12.63 28.43L12.27 27.87L11.9 27.33L11.55 26.79L11.19 26.27L10.84 25.76L10.5 25.26L10.16 24.78L9.83 24.3L9.5 23.83L9.18 23.37L8.87 22.92L8.56 22.48L8.26 22.04L7.97 21.62L7.69 21.2L7.41 20.78L7.15 20.38L6.89 19.98L6.64 19.58L6.4 19.19L6.17 18.81L5.95 18.42L5.74 18.05L5.54 17.67L5.35 17.3L5.18 16.93L5.01 16.56L4.85 16.2L4.71 15.83L4.58 15.47L4.46 15.1L4.36 14.74L4.27 14.37L4.19 14.01L4.12 13.64L4.07 13.27L4.03 12.9L4.01 12.53L4 12.15L4.01 11.77L4.03 11.4L4.07 11.03L4.12 10.67L4.19 10.31L4.27 9.95L4.36 9.6L4.46 9.26L4.58 8.92L4.71 8.59L4.85 8.26L5.01 7.95L5.18 7.64L5.35 7.33L5.54 7.04L5.74 6.75L5.95 6.47L6.17 6.2L6.4 5.93L6.64 5.68L6.89 5.44L7.15 5.2L7.41 4.98L7.69 4.77L7.97 4.56L8.26 4.37L8.56 4.19L8.87 4.02L9.18 3.87L9.5 3.72L9.83 3.59L10.16 3.47L10.5 3.36L10.84 3.27L11.19 3.19L11.55 3.12L11.9 3.07L12.27 3.03L12.63 3.01L13 3L13.38 3.01L13.74 3.03ZM12.66 7.35L12.48 7.37L12.31 7.39L12.15 7.42L11.98 7.46L11.82 7.51L11.66 7.56L11.5 7.61L11.35 7.68L11.19 7.74L11.05 7.82L10.9 7.9L10.76 7.98L10.62 8.08L10.49 8.17L10.36 8.27L10.23 8.38L10.11 8.49L9.99 8.6L9.88 8.72L9.77 8.85L9.66 8.98L9.56 9.11L9.47 9.25L9.38 9.39L9.3 9.53L9.22 9.68L9.14 9.83L9.08 9.98L9.01 10.14L8.96 10.3L8.91 10.46L8.87 10.63L8.83 10.8L8.8 10.97L8.77 11.14L8.76 11.31L8.75 11.49L8.74 11.67L8.75 11.85L8.76 12.02L8.77 12.2L8.8 12.37L8.83 12.54L8.87 12.71L8.91 12.88L8.96 13.04L9.01 13.2L9.08 13.36L9.14 13.51L9.22 13.66L9.3 13.81L9.38 13.95L9.47 14.09L9.56 14.23L9.66 14.36L9.77 14.49L9.88 14.61L9.99 14.73L10.11 14.85L10.23 14.96L10.36 15.07L10.49 15.17L10.62 15.26L10.76 15.35L10.9 15.44L11.05 15.52L11.19 15.59L11.35 15.66L11.5 15.72L11.66 15.78L11.82 15.83L11.98 15.88L12.15 15.91L12.31 15.95L12.48 15.97L12.66 15.99L12.83 16L13 16L13.18 16L13.35 15.99L13.53 15.97L13.7 15.95L13.86 15.91L14.03 15.88L14.19 15.83L14.35 15.78L14.51 15.72L14.66 15.66L14.82 15.59L14.96 15.52L15.11 15.44L15.25 15.35L15.39 15.26L15.52 15.17L15.65 15.07L15.78 14.96L15.9 14.85L16.02 14.73L16.13 14.61L16.24 14.49L16.35 14.36L16.45 14.23L16.54 14.09L16.63 13.95L16.71 13.81L16.79 13.66L16.87 13.51L16.93 13.36L16.99 13.2L17.05 13.04L17.1 12.88L17.14 12.71L17.18 12.54L17.21 12.37L17.24 12.2L17.25 12.02L17.26 11.85L17.27 11.67L17.26 11.49L17.25 11.31L17.24 11.14L17.21 10.97L17.18 10.8L17.14 10.63L17.1 10.46L17.05 10.3L16.99 10.14L16.93 9.98L16.87 9.83L16.79 9.68L16.71 9.53L16.63 9.39L16.54 9.25L16.45 9.11L16.35 8.98L16.24 8.85L16.13 8.72L16.02 8.6L15.9 8.49L15.78 8.38L15.65 8.27L15.52 8.17L15.39 8.08L15.25 7.98L15.11 7.9L14.96 7.82L14.82 7.74L14.66 7.68L14.51 7.61L14.35 7.56L14.19 7.51L14.03 7.46L13.86 7.42L13.7 7.39L13.53 7.37L13.35 7.35L13.18 7.34L13 7.34L12.83 7.34L12.66 7.35Z" id="a9OUgVTHm"></path><mask id="maskc49ndN0rh" x="0" y="-1" width="26" height="34" maskUnits="userSpaceOnUse"><rect x="0" y="-1" width="26" height="34" fill="white"></rect><use xlink:href="#a9OUgVTHm" opacity="1" fill="black"></use></mask><path d="M18 12C18 14.76 15.76 17 13 17C10.24 17 8 14.76 8 12C8 9.24 10.24 7 13 7C15.76 7 18 9.24 18 12Z" id="oj8nGN6l"></path></defs><g><g><g><g><use xlink:href="#a6V7Vvofu" opacity="1" fill-opacity="0" stroke="#000000" stroke-width="1" stroke-opacity="1"></use></g></g><g><g><filter id="shadow4677937" x="-11" y="-12" width="48" height="59" filterUnits="userSpaceOnUse" primitiveUnits="userSpaceOnUse"><feFlood></feFlood><feComposite in2="SourceAlpha" operator="in"></feComposite><feGaussianBlur stdDeviation="1.73"></feGaussianBlur><feOffset dx="0" dy="3" result="afterOffset"></feOffset><feFlood flood-color="#000000" flood-opacity="0.5"></feFlood><feComposite in2="afterOffset" operator="in"></feComposite><feMorphology operator="dilate" radius="1"></feMorphology><feComposite in2="SourceAlpha" operator="out"></feComposite></filter><path d="M13.74 3.03L14.11 3.07L14.46 3.12L14.82 3.19L15.17 3.27L15.51 3.36L15.85 3.47L16.18 3.59L16.51 3.72L16.83 3.87L17.14 4.02L17.45 4.19L17.75 4.37L18.04 4.56L18.32 4.77L18.6 4.98L18.86 5.2L19.12 5.44L19.37 5.68L19.61 5.93L19.84 6.2L20.06 6.47L20.27 6.75L20.47 7.04L20.66 7.33L20.83 7.64L21 7.95L21.15 8.26L21.3 8.59L21.43 8.92L21.55 9.26L21.65 9.6L21.74 9.95L21.82 10.31L21.89 10.67L21.94 11.03L21.98 11.4L22 11.77L22 12.15L22 12.53L21.98 12.9L21.94 13.27L21.89 13.64L21.82 14.01L21.74 14.37L21.65 14.74L21.55 15.1L21.43 15.47L21.3 15.83L21.15 16.2L21 16.56L20.83 16.93L20.66 17.3L20.47 17.67L20.27 18.05L20.06 18.42L19.84 18.81L19.61 19.19L19.37 19.58L19.12 19.98L18.86 20.38L18.6 20.78L18.32 21.2L18.04 21.62L17.75 22.04L17.45 22.48L17.14 22.92L16.83 23.37L16.51 23.83L16.18 24.3L15.85 24.78L15.51 25.26L15.17 25.76L14.82 26.27L14.46 26.79L14.11 27.33L13.74 27.87L13.38 28.43L13 29L12.63 28.43L12.27 27.87L11.9 27.33L11.55 26.79L11.19 26.27L10.84 25.76L10.5 25.26L10.16 24.78L9.83 24.3L9.5 23.83L9.18 23.37L8.87 22.92L8.56 22.48L8.26 22.04L7.97 21.62L7.69 21.2L7.41 20.78L7.15 20.38L6.89 19.98L6.64 19.58L6.4 19.19L6.17 18.81L5.95 18.42L5.74 18.05L5.54 17.67L5.35 17.3L5.18 16.93L5.01 16.56L4.85 16.2L4.71 15.83L4.58 15.47L4.46 15.1L4.36 14.74L4.27 14.37L4.19 14.01L4.12 13.64L4.07 13.27L4.03 12.9L4.01 12.53L4 12.15L4.01 11.77L4.03 11.4L4.07 11.03L4.12 10.67L4.19 10.31L4.27 9.95L4.36 9.6L4.46 9.26L4.58 8.92L4.71 8.59L4.85 8.26L5.01 7.95L5.18 7.64L5.35 7.33L5.54 7.04L5.74 6.75L5.95 6.47L6.17 6.2L6.4 5.93L6.64 5.68L6.89 5.44L7.15 5.2L7.41 4.98L7.69 4.77L7.97 4.56L8.26 4.37L8.56 4.19L8.87 4.02L9.18 3.87L9.5 3.72L9.83 3.59L10.16 3.47L10.5 3.36L10.84 3.27L11.19 3.19L11.55 3.12L11.9 3.07L12.27 3.03L12.63 3.01L13 3L13.38 3.01L13.74 3.03ZM12.66 7.35L12.48 7.37L12.31 7.39L12.15 7.42L11.98 7.46L11.82 7.51L11.66 7.56L11.5 7.61L11.35 7.68L11.19 7.74L11.05 7.82L10.9 7.9L10.76 7.98L10.62 8.08L10.49 8.17L10.36 8.27L10.23 8.38L10.11 8.49L9.99 8.6L9.88 8.72L9.77 8.85L9.66 8.98L9.56 9.11L9.47 9.25L9.38 9.39L9.3 9.53L9.22 9.68L9.14 9.83L9.08 9.98L9.01 10.14L8.96 10.3L8.91 10.46L8.87 10.63L8.83 10.8L8.8 10.97L8.77 11.14L8.76 11.31L8.75 11.49L8.74 11.67L8.75 11.85L8.76 12.02L8.77 12.2L8.8 12.37L8.83 12.54L8.87 12.71L8.91 12.88L8.96 13.04L9.01 13.2L9.08 13.36L9.14 13.51L9.22 13.66L9.3 13.81L9.38 13.95L9.47 14.09L9.56 14.23L9.66 14.36L9.77 14.49L9.88 14.61L9.99 14.73L10.11 14.85L10.23 14.96L10.36 15.07L10.49 15.17L10.62 15.26L10.76 15.35L10.9 15.44L11.05 15.52L11.19 15.59L11.35 15.66L11.5 15.72L11.66 15.78L11.82 15.83L11.98 15.88L12.15 15.91L12.31 15.95L12.48 15.97L12.66 15.99L12.83 16L13 16L13.18 16L13.35 15.99L13.53 15.97L13.7 15.95L13.86 15.91L14.03 15.88L14.19 15.83L14.35 15.78L14.51 15.72L14.66 15.66L14.82 15.59L14.96 15.52L15.11 15.44L15.25 15.35L15.39 15.26L15.52 15.17L15.65 15.07L15.78 14.96L15.9 14.85L16.02 14.73L16.13 14.61L16.24 14.49L16.35 14.36L16.45 14.23L16.54 14.09L16.63 13.95L16.71 13.81L16.79 13.66L16.87 13.51L16.93 13.36L16.99 13.2L17.05 13.04L17.1 12.88L17.14 12.71L17.18 12.54L17.21 12.37L17.24 12.2L17.25 12.02L17.26 11.85L17.27 11.67L17.26 11.49L17.25 11.31L17.24 11.14L17.21 10.97L17.18 10.8L17.14 10.63L17.1 10.46L17.05 10.3L16.99 10.14L16.93 9.98L16.87 9.83L16.79 9.68L16.71 9.53L16.63 9.39L16.54 9.25L16.45 9.11L16.35 8.98L16.24 8.85L16.13 8.72L16.02 8.6L15.9 8.49L15.78 8.38L15.65 8.27L15.52 8.17L15.39 8.08L15.25 7.98L15.11 7.9L14.96 7.82L14.82 7.74L14.66 7.68L14.51 7.61L14.35 7.56L14.19 7.51L14.03 7.46L13.86 7.42L13.7 7.39L13.53 7.37L13.35 7.35L13.18 7.34L13 7.34L12.83 7.34L12.66 7.35Z" id="aAz0IB9yX" fill="white" fill-opacity="1" filter="url(#shadow4677937)"></path></g><use xlink:href="#a9OUgVTHm" opacity="1" fill="#38ccf9" fill-opacity="1"></use><g mask="url(#maskc49ndN0rh)"><use xlink:href="#a9OUgVTHm" opacity="1" fill-opacity="0" stroke="#ffffff" stroke-width="4" stroke-opacity="1"></use></g></g><g><use xlink:href="#oj8nGN6l" opacity="1" fill="#289ec2" fill-opacity="1"></use></g></g></g></svg>