<?xml version="1.0" encoding="UTF-8" standalone="no"?>
<!DOCTYPE svg PUBLIC "-//W3C//DTD SVG 1.1//EN" "http://www.w3.org/Graphics/SVG/1.1/DTD/svg11.dtd">
<svg version="1.1" xmlns="http://www.w3.org/2000/svg" xmlns:xlink="http://www.w3.org/1999/xlink" preserveAspectRatio="xMidYMid meet" viewBox="0 0 26 34" width="26" height="34"><defs><path d="M3 13C3 7.48 7.48 3 13 3C18.52 3 23 7.48 23 13C23 17.04 21.6 18.17 14.03 29.14C13.53 29.86 12.47 29.86 11.97 29.14C4.4 18.17 3 17.04 3 13Z" id="a2DEkNPqpa"></path><mask id="maskb21yXv0Zsw" x="-1" y="-1" width="28" height="34.68" maskUnits="userSpaceOnUse"><rect x="-1" y="-1" width="28" height="34.68" fill="white"></rect><use xlink:href="#a2DEkNPqpa" opacity="1" fill="black"></use></mask><path d="M17.93 9.03L18 9.06L18.07 9.11L18.15 9.16L18.22 9.24L18.29 9.32L18.37 9.42L18.44 9.53L19 12.34L19 13.01L18.99 13.13L18.96 13.24L18.91 13.34L18.84 13.44L18.76 13.52L18.67 13.58L18.57 13.63L18.45 13.66L18.33 13.67L18.33 17.01L18.32 17.13L18.29 17.24L18.24 17.35L18.18 17.44L18.1 17.52L18 17.59L17.9 17.64L17.79 17.67L17.67 17.68L17.55 17.67L17.43 17.64L17.33 17.59L17.24 17.52L17.16 17.44L17.09 17.35L17.04 17.24L17.01 17.13L17 17.01L17 13.67L14.33 13.67L14.33 17.01L14.32 17.13L14.29 17.24L14.24 17.35L14.18 17.44L14.1 17.52L14 17.59L13.9 17.64L13.79 17.67L13.67 17.68L8.33 17.68L8.21 17.67L8.1 17.64L8 17.59L7.9 17.52L7.82 17.44L7.76 17.35L7.71 17.24L7.68 17.13L7.67 17.01L7.67 13.67L7.55 13.66L7.43 13.63L7.33 13.58L7.24 13.52L7.16 13.44L7.09 13.34L7.04 13.24L7.01 13.13L7 13.01L7 12.34L7.56 9.53L7.59 9.43L7.63 9.34L7.68 9.26L7.75 9.19L7.83 9.12L7.92 9.07L8.01 9.03L8.11 9.01L8.21 9L17.79 9L17.86 9.01L17.93 9.03ZM9 16.34L13 16.34L13 13.67L9 13.67L9 16.34Z" id="gl8YHDiWN"></path></defs><g><g><g><g><filter id="shadow15359851" x="-6" y="-6" width="38" height="45.68" filterUnits="userSpaceOnUse" primitiveUnits="userSpaceOnUse"><feFlood></feFlood><feComposite in2="SourceAlpha" operator="in"></feComposite><feGaussianBlur stdDeviation="1"></feGaussianBlur><feOffset dx="0" dy="1" result="afterOffset"></feOffset><feFlood flood-color="#000000" flood-opacity="0.5"></feFlood><feComposite in2="afterOffset" operator="in"></feComposite><feMorphology operator="dilate" radius="1"></feMorphology><feComposite in2="SourceAlpha" operator="out"></feComposite></filter><path d="M3 13C3 7.48 7.48 3 13 3C18.52 3 23 7.48 23 13C23 17.04 21.6 18.17 14.03 29.14C13.53 29.86 12.47 29.86 11.97 29.14C4.4 18.17 3 17.04 3 13Z" id="dLJyi2flG" fill="white" fill-opacity="1" filter="url(#shadow15359851)"></path></g><use xlink:href="#a2DEkNPqpa" opacity="1" fill="#4f7ada" fill-opacity="1"></use><g mask="url(#maskb21yXv0Zsw)"><use xlink:href="#a2DEkNPqpa" opacity="1" fill-opacity="0" stroke="#ffffff" stroke-width="4" stroke-opacity="1"></use></g></g><g><use xlink:href="#gl8YHDiWN" opacity="1" fill="#ffffff" fill-opacity="1"></use><g><use xlink:href="#gl8YHDiWN" opacity="1" fill-opacity="0" stroke="#000000" stroke-width="1" stroke-opacity="0"></use></g></g></g></g></svg>