<?xml version="1.0" encoding="UTF-8" standalone="no"?>
<!DOCTYPE svg PUBLIC "-//W3C//DTD SVG 1.1//EN" "http://www.w3.org/Graphics/SVG/1.1/DTD/svg11.dtd">
<svg version="1.1" xmlns="http://www.w3.org/2000/svg" xmlns:xlink="http://www.w3.org/1999/xlink" preserveAspectRatio="xMidYMid meet" viewBox="0 0 40 40" width="40" height="40"><defs><path d="M35 20C35 28.28 28.28 35 20 35C11.72 35 5 28.28 5 20C5 11.72 11.72 5 20 5C28.28 5 35 11.72 35 20Z" id="a2e6CoLCK"></path><mask id="maskb3q7gZ4eme" x="1" y="1" width="38" height="38" maskUnits="userSpaceOnUse"><rect x="1" y="1" width="38" height="38" fill="white"></rect><use xlink:href="#a2e6CoLCK" opacity="1" fill="black"></use></mask></defs><g><g><g><g><filter id="shadow11626738" x="-9" y="-9" width="58" height="58" filterUnits="userSpaceOnUse" primitiveUnits="userSpaceOnUse"><feFlood></feFlood><feComposite in2="SourceAlpha" operator="in"></feComposite><feGaussianBlur stdDeviation="1.73"></feGaussianBlur><feOffset dx="0" dy="0" result="afterOffset"></feOffset><feFlood flood-color="#000000" flood-opacity="0.35"></feFlood><feComposite in2="afterOffset" operator="in"></feComposite><feMorphology operator="dilate" radius="3"></feMorphology><feComposite in2="SourceAlpha" operator="out"></feComposite></filter><path d="M35 20C35 28.28 28.28 35 20 35C11.72 35 5 28.28 5 20C5 11.72 11.72 5 20 5C28.28 5 35 11.72 35 20Z" id="b1z87QWyIX" fill="white" fill-opacity="1" filter="url(#shadow11626738)"></path></g><use xlink:href="#a2e6CoLCK" opacity="1" fill="#4f7ada" fill-opacity="1"></use><g mask="url(#maskb3q7gZ4eme)"><use xlink:href="#a2e6CoLCK" opacity="1" fill-opacity="0" stroke="#ffffff" stroke-width="4" stroke-opacity="1"></use></g></g></g></g></svg>